<?xml version="1.0" encoding="utf-8" standalone="no"?>
<!DOCTYPE svg PUBLIC "-//W3C//DTD SVG 1.1//EN"
  "http://www.w3.org/Graphics/SVG/1.1/DTD/svg11.dtd">
<svg xmlns:xlink="http://www.w3.org/1999/xlink" width="638.241222pt" height="495.594375pt" viewBox="0 0 638.241222 495.594375" xmlns="http://www.w3.org/2000/svg" version="1.1">
 <metadata>
  <rdf:RDF xmlns:dc="http://purl.org/dc/elements/1.1/" xmlns:cc="http://creativecommons.org/ns#" xmlns:rdf="http://www.w3.org/1999/02/22-rdf-syntax-ns#">
   <cc:Work>
    <dc:type rdf:resource="http://purl.org/dc/dcmitype/StillImage"/>
    <dc:date>2026-03-08T16:30:47.006380</dc:date>
    <dc:format>image/svg+xml</dc:format>
    <dc:creator>
     <cc:Agent>
      <dc:title>Matplotlib v3.10.8, https://matplotlib.org/</dc:title>
     </cc:Agent>
    </dc:creator>
   </cc:Work>
  </rdf:RDF>
 </metadata>
 <defs>
  <style type="text/css">*{stroke-linejoin: round; stroke-linecap: butt}</style>
 </defs>
 <g id="figure_1">
  <g id="patch_1">
   <path d="M 0 495.594375 
L 638.241222 495.594375 
L 638.241222 0 
L 0 0 
z
" style="fill: #ffffff"/>
  </g>
  <g id="axes_1">
   <g id="patch_2">
    <path d="M 55.949375 448.36 
L 630.967067 448.36 
L 630.967067 7.2 
L 55.949375 7.2 
z
" style="fill: #ffffff"/>
   </g>
   <g id="matplotlib.axis_1">
    <g id="xtick_1">
     <g id="line2d_1">
      <path d="M 67.007408 448.36 
L 67.007408 7.2 
" clip-path="url(#p213e2a4f38)" style="fill: none; stroke-dasharray: 0.8,1.32; stroke-dashoffset: 0; stroke: #b0b0b0; stroke-opacity: 0.25; stroke-width: 0.8"/>
     </g>
     <g id="line2d_2">
      <defs>
       <path id="me7c170f537" d="M 0 0 
L 0 3.5 
" style="stroke: #000000; stroke-width: 0.8"/>
      </defs>
      <g>
       <use xlink:href="#me7c170f537" x="67.007408" y="448.36" style="stroke: #000000; stroke-width: 0.8"/>
      </g>
     </g>
     <g id="text_1">
      <!-- 0.0 -->
      <g transform="translate(55.87522 465.997812) scale(0.14 -0.14)">
       <defs>
        <path id="DejaVuSans-30" d="M 2034 4250 
Q 1547 4250 1301 3770 
Q 1056 3291 1056 2328 
Q 1056 1369 1301 889 
Q 1547 409 2034 409 
Q 2525 409 2770 889 
Q 3016 1369 3016 2328 
Q 3016 3291 2770 3770 
Q 2525 4250 2034 4250 
z
M 2034 4750 
Q 2819 4750 3233 4129 
Q 3647 3509 3647 2328 
Q 3647 1150 3233 529 
Q 2819 -91 2034 -91 
Q 1250 -91 836 529 
Q 422 1150 422 2328 
Q 422 3509 836 4129 
Q 1250 4750 2034 4750 
z
" transform="scale(0.015625)"/>
        <path id="DejaVuSans-2e" d="M 684 794 
L 1344 794 
L 1344 0 
L 684 0 
L 684 794 
z
" transform="scale(0.015625)"/>
       </defs>
       <use xlink:href="#DejaVuSans-30"/>
       <use xlink:href="#DejaVuSans-2e" transform="translate(63.623047 0)"/>
       <use xlink:href="#DejaVuSans-30" transform="translate(95.410156 0)"/>
      </g>
     </g>
    </g>
    <g id="xtick_2">
     <g id="line2d_3">
      <path d="M 177.587733 448.36 
L 177.587733 7.2 
" clip-path="url(#p213e2a4f38)" style="fill: none; stroke-dasharray: 0.8,1.32; stroke-dashoffset: 0; stroke: #b0b0b0; stroke-opacity: 0.25; stroke-width: 0.8"/>
     </g>
     <g id="line2d_4">
      <g>
       <use xlink:href="#me7c170f537" x="177.587733" y="448.36" style="stroke: #000000; stroke-width: 0.8"/>
      </g>
     </g>
     <g id="text_2">
      <!-- 0.2 -->
      <g transform="translate(166.455545 465.997812) scale(0.14 -0.14)">
       <defs>
        <path id="DejaVuSans-32" d="M 1228 531 
L 3431 531 
L 3431 0 
L 469 0 
L 469 531 
Q 828 903 1448 1529 
Q 2069 2156 2228 2338 
Q 2531 2678 2651 2914 
Q 2772 3150 2772 3378 
Q 2772 3750 2511 3984 
Q 2250 4219 1831 4219 
Q 1534 4219 1204 4116 
Q 875 4013 500 3803 
L 500 4441 
Q 881 4594 1212 4672 
Q 1544 4750 1819 4750 
Q 2544 4750 2975 4387 
Q 3406 4025 3406 3419 
Q 3406 3131 3298 2873 
Q 3191 2616 2906 2266 
Q 2828 2175 2409 1742 
Q 1991 1309 1228 531 
z
" transform="scale(0.015625)"/>
       </defs>
       <use xlink:href="#DejaVuSans-30"/>
       <use xlink:href="#DejaVuSans-2e" transform="translate(63.623047 0)"/>
       <use xlink:href="#DejaVuSans-32" transform="translate(95.410156 0)"/>
      </g>
     </g>
    </g>
    <g id="xtick_3">
     <g id="line2d_5">
      <path d="M 288.168058 448.36 
L 288.168058 7.2 
" clip-path="url(#p213e2a4f38)" style="fill: none; stroke-dasharray: 0.8,1.32; stroke-dashoffset: 0; stroke: #b0b0b0; stroke-opacity: 0.25; stroke-width: 0.8"/>
     </g>
     <g id="line2d_6">
      <g>
       <use xlink:href="#me7c170f537" x="288.168058" y="448.36" style="stroke: #000000; stroke-width: 0.8"/>
      </g>
     </g>
     <g id="text_3">
      <!-- 0.4 -->
      <g transform="translate(277.035871 465.997812) scale(0.14 -0.14)">
       <defs>
        <path id="DejaVuSans-34" d="M 2419 4116 
L 825 1625 
L 2419 1625 
L 2419 4116 
z
M 2253 4666 
L 3047 4666 
L 3047 1625 
L 3713 1625 
L 3713 1100 
L 3047 1100 
L 3047 0 
L 2419 0 
L 2419 1100 
L 313 1100 
L 313 1709 
L 2253 4666 
z
" transform="scale(0.015625)"/>
       </defs>
       <use xlink:href="#DejaVuSans-30"/>
       <use xlink:href="#DejaVuSans-2e" transform="translate(63.623047 0)"/>
       <use xlink:href="#DejaVuSans-34" transform="translate(95.410156 0)"/>
      </g>
     </g>
    </g>
    <g id="xtick_4">
     <g id="line2d_7">
      <path d="M 398.748384 448.36 
L 398.748384 7.2 
" clip-path="url(#p213e2a4f38)" style="fill: none; stroke-dasharray: 0.8,1.32; stroke-dashoffset: 0; stroke: #b0b0b0; stroke-opacity: 0.25; stroke-width: 0.8"/>
     </g>
     <g id="line2d_8">
      <g>
       <use xlink:href="#me7c170f537" x="398.748384" y="448.36" style="stroke: #000000; stroke-width: 0.8"/>
      </g>
     </g>
     <g id="text_4">
      <!-- 0.6 -->
      <g transform="translate(387.616196 465.997812) scale(0.14 -0.14)">
       <defs>
        <path id="DejaVuSans-36" d="M 2113 2584 
Q 1688 2584 1439 2293 
Q 1191 2003 1191 1497 
Q 1191 994 1439 701 
Q 1688 409 2113 409 
Q 2538 409 2786 701 
Q 3034 994 3034 1497 
Q 3034 2003 2786 2293 
Q 2538 2584 2113 2584 
z
M 3366 4563 
L 3366 3988 
Q 3128 4100 2886 4159 
Q 2644 4219 2406 4219 
Q 1781 4219 1451 3797 
Q 1122 3375 1075 2522 
Q 1259 2794 1537 2939 
Q 1816 3084 2150 3084 
Q 2853 3084 3261 2657 
Q 3669 2231 3669 1497 
Q 3669 778 3244 343 
Q 2819 -91 2113 -91 
Q 1303 -91 875 529 
Q 447 1150 447 2328 
Q 447 3434 972 4092 
Q 1497 4750 2381 4750 
Q 2619 4750 2861 4703 
Q 3103 4656 3366 4563 
z
" transform="scale(0.015625)"/>
       </defs>
       <use xlink:href="#DejaVuSans-30"/>
       <use xlink:href="#DejaVuSans-2e" transform="translate(63.623047 0)"/>
       <use xlink:href="#DejaVuSans-36" transform="translate(95.410156 0)"/>
      </g>
     </g>
    </g>
    <g id="xtick_5">
     <g id="line2d_9">
      <path d="M 509.328709 448.36 
L 509.328709 7.2 
" clip-path="url(#p213e2a4f38)" style="fill: none; stroke-dasharray: 0.8,1.32; stroke-dashoffset: 0; stroke: #b0b0b0; stroke-opacity: 0.25; stroke-width: 0.8"/>
     </g>
     <g id="line2d_10">
      <g>
       <use xlink:href="#me7c170f537" x="509.328709" y="448.36" style="stroke: #000000; stroke-width: 0.8"/>
      </g>
     </g>
     <g id="text_5">
      <!-- 0.8 -->
      <g transform="translate(498.196522 465.997812) scale(0.14 -0.14)">
       <defs>
        <path id="DejaVuSans-38" d="M 2034 2216 
Q 1584 2216 1326 1975 
Q 1069 1734 1069 1313 
Q 1069 891 1326 650 
Q 1584 409 2034 409 
Q 2484 409 2743 651 
Q 3003 894 3003 1313 
Q 3003 1734 2745 1975 
Q 2488 2216 2034 2216 
z
M 1403 2484 
Q 997 2584 770 2862 
Q 544 3141 544 3541 
Q 544 4100 942 4425 
Q 1341 4750 2034 4750 
Q 2731 4750 3128 4425 
Q 3525 4100 3525 3541 
Q 3525 3141 3298 2862 
Q 3072 2584 2669 2484 
Q 3125 2378 3379 2068 
Q 3634 1759 3634 1313 
Q 3634 634 3220 271 
Q 2806 -91 2034 -91 
Q 1263 -91 848 271 
Q 434 634 434 1313 
Q 434 1759 690 2068 
Q 947 2378 1403 2484 
z
M 1172 3481 
Q 1172 3119 1398 2916 
Q 1625 2713 2034 2713 
Q 2441 2713 2670 2916 
Q 2900 3119 2900 3481 
Q 2900 3844 2670 4047 
Q 2441 4250 2034 4250 
Q 1625 4250 1398 4047 
Q 1172 3844 1172 3481 
z
" transform="scale(0.015625)"/>
       </defs>
       <use xlink:href="#DejaVuSans-30"/>
       <use xlink:href="#DejaVuSans-2e" transform="translate(63.623047 0)"/>
       <use xlink:href="#DejaVuSans-38" transform="translate(95.410156 0)"/>
      </g>
     </g>
    </g>
    <g id="xtick_6">
     <g id="line2d_11">
      <path d="M 619.909035 448.36 
L 619.909035 7.2 
" clip-path="url(#p213e2a4f38)" style="fill: none; stroke-dasharray: 0.8,1.32; stroke-dashoffset: 0; stroke: #b0b0b0; stroke-opacity: 0.25; stroke-width: 0.8"/>
     </g>
     <g id="line2d_12">
      <g>
       <use xlink:href="#me7c170f537" x="619.909035" y="448.36" style="stroke: #000000; stroke-width: 0.8"/>
      </g>
     </g>
     <g id="text_6">
      <!-- 1.0 -->
      <g transform="translate(608.776847 465.997812) scale(0.14 -0.14)">
       <defs>
        <path id="DejaVuSans-31" d="M 794 531 
L 1825 531 
L 1825 4091 
L 703 3866 
L 703 4441 
L 1819 4666 
L 2450 4666 
L 2450 531 
L 3481 531 
L 3481 0 
L 794 0 
L 794 531 
z
" transform="scale(0.015625)"/>
       </defs>
       <use xlink:href="#DejaVuSans-31"/>
       <use xlink:href="#DejaVuSans-2e" transform="translate(63.623047 0)"/>
       <use xlink:href="#DejaVuSans-30" transform="translate(95.410156 0)"/>
      </g>
     </g>
    </g>
    <g id="text_7">
     <!-- False Positive Rate -->
     <g transform="translate(257.684471 485.066875) scale(0.16 -0.16)">
      <defs>
       <path id="DejaVuSans-Bold-46" d="M 588 4666 
L 3834 4666 
L 3834 3756 
L 1791 3756 
L 1791 2888 
L 3713 2888 
L 3713 1978 
L 1791 1978 
L 1791 0 
L 588 0 
L 588 4666 
z
" transform="scale(0.015625)"/>
       <path id="DejaVuSans-Bold-61" d="M 2106 1575 
Q 1756 1575 1579 1456 
Q 1403 1338 1403 1106 
Q 1403 894 1545 773 
Q 1688 653 1941 653 
Q 2256 653 2472 879 
Q 2688 1106 2688 1447 
L 2688 1575 
L 2106 1575 
z
M 3816 1997 
L 3816 0 
L 2688 0 
L 2688 519 
Q 2463 200 2181 54 
Q 1900 -91 1497 -91 
Q 953 -91 614 226 
Q 275 544 275 1050 
Q 275 1666 698 1953 
Q 1122 2241 2028 2241 
L 2688 2241 
L 2688 2328 
Q 2688 2594 2478 2717 
Q 2269 2841 1825 2841 
Q 1466 2841 1156 2769 
Q 847 2697 581 2553 
L 581 3406 
Q 941 3494 1303 3539 
Q 1666 3584 2028 3584 
Q 2975 3584 3395 3211 
Q 3816 2838 3816 1997 
z
" transform="scale(0.015625)"/>
       <path id="DejaVuSans-Bold-6c" d="M 538 4863 
L 1656 4863 
L 1656 0 
L 538 0 
L 538 4863 
z
" transform="scale(0.015625)"/>
       <path id="DejaVuSans-Bold-73" d="M 3272 3391 
L 3272 2541 
Q 2913 2691 2578 2766 
Q 2244 2841 1947 2841 
Q 1628 2841 1473 2761 
Q 1319 2681 1319 2516 
Q 1319 2381 1436 2309 
Q 1553 2238 1856 2203 
L 2053 2175 
Q 2913 2066 3209 1816 
Q 3506 1566 3506 1031 
Q 3506 472 3093 190 
Q 2681 -91 1863 -91 
Q 1516 -91 1145 -36 
Q 775 19 384 128 
L 384 978 
Q 719 816 1070 734 
Q 1422 653 1784 653 
Q 2113 653 2278 743 
Q 2444 834 2444 1013 
Q 2444 1163 2330 1236 
Q 2216 1309 1875 1350 
L 1678 1375 
Q 931 1469 631 1722 
Q 331 1975 331 2491 
Q 331 3047 712 3315 
Q 1094 3584 1881 3584 
Q 2191 3584 2531 3537 
Q 2872 3491 3272 3391 
z
" transform="scale(0.015625)"/>
       <path id="DejaVuSans-Bold-65" d="M 4031 1759 
L 4031 1441 
L 1416 1441 
Q 1456 1047 1700 850 
Q 1944 653 2381 653 
Q 2734 653 3104 758 
Q 3475 863 3866 1075 
L 3866 213 
Q 3469 63 3072 -14 
Q 2675 -91 2278 -91 
Q 1328 -91 801 392 
Q 275 875 275 1747 
Q 275 2603 792 3093 
Q 1309 3584 2216 3584 
Q 3041 3584 3536 3087 
Q 4031 2591 4031 1759 
z
M 2881 2131 
Q 2881 2450 2695 2645 
Q 2509 2841 2209 2841 
Q 1884 2841 1681 2658 
Q 1478 2475 1428 2131 
L 2881 2131 
z
" transform="scale(0.015625)"/>
       <path id="DejaVuSans-Bold-20" transform="scale(0.015625)"/>
       <path id="DejaVuSans-Bold-50" d="M 588 4666 
L 2584 4666 
Q 3475 4666 3951 4270 
Q 4428 3875 4428 3144 
Q 4428 2409 3951 2014 
Q 3475 1619 2584 1619 
L 1791 1619 
L 1791 0 
L 588 0 
L 588 4666 
z
M 1791 3794 
L 1791 2491 
L 2456 2491 
Q 2806 2491 2997 2661 
Q 3188 2831 3188 3144 
Q 3188 3456 2997 3625 
Q 2806 3794 2456 3794 
L 1791 3794 
z
" transform="scale(0.015625)"/>
       <path id="DejaVuSans-Bold-6f" d="M 2203 2784 
Q 1831 2784 1636 2517 
Q 1441 2250 1441 1747 
Q 1441 1244 1636 976 
Q 1831 709 2203 709 
Q 2569 709 2762 976 
Q 2956 1244 2956 1747 
Q 2956 2250 2762 2517 
Q 2569 2784 2203 2784 
z
M 2203 3584 
Q 3106 3584 3614 3096 
Q 4122 2609 4122 1747 
Q 4122 884 3614 396 
Q 3106 -91 2203 -91 
Q 1297 -91 786 396 
Q 275 884 275 1747 
Q 275 2609 786 3096 
Q 1297 3584 2203 3584 
z
" transform="scale(0.015625)"/>
       <path id="DejaVuSans-Bold-69" d="M 538 3500 
L 1656 3500 
L 1656 0 
L 538 0 
L 538 3500 
z
M 538 4863 
L 1656 4863 
L 1656 3950 
L 538 3950 
L 538 4863 
z
" transform="scale(0.015625)"/>
       <path id="DejaVuSans-Bold-74" d="M 1759 4494 
L 1759 3500 
L 2913 3500 
L 2913 2700 
L 1759 2700 
L 1759 1216 
Q 1759 972 1856 886 
Q 1953 800 2241 800 
L 2816 800 
L 2816 0 
L 1856 0 
Q 1194 0 917 276 
Q 641 553 641 1216 
L 641 2700 
L 84 2700 
L 84 3500 
L 641 3500 
L 641 4494 
L 1759 4494 
z
" transform="scale(0.015625)"/>
       <path id="DejaVuSans-Bold-76" d="M 97 3500 
L 1216 3500 
L 2088 1081 
L 2956 3500 
L 4078 3500 
L 2700 0 
L 1472 0 
L 97 3500 
z
" transform="scale(0.015625)"/>
       <path id="DejaVuSans-Bold-52" d="M 2297 2597 
Q 2675 2597 2839 2737 
Q 3003 2878 3003 3200 
Q 3003 3519 2839 3656 
Q 2675 3794 2297 3794 
L 1791 3794 
L 1791 2597 
L 2297 2597 
z
M 1791 1766 
L 1791 0 
L 588 0 
L 588 4666 
L 2425 4666 
Q 3347 4666 3776 4356 
Q 4206 4047 4206 3378 
Q 4206 2916 3982 2619 
Q 3759 2322 3309 2181 
Q 3556 2125 3751 1926 
Q 3947 1728 4147 1325 
L 4800 0 
L 3519 0 
L 2950 1159 
Q 2778 1509 2601 1637 
Q 2425 1766 2131 1766 
L 1791 1766 
z
" transform="scale(0.015625)"/>
      </defs>
      <use xlink:href="#DejaVuSans-Bold-46"/>
      <use xlink:href="#DejaVuSans-Bold-61" transform="translate(62.435547 0)"/>
      <use xlink:href="#DejaVuSans-Bold-6c" transform="translate(129.916016 0)"/>
      <use xlink:href="#DejaVuSans-Bold-73" transform="translate(164.193359 0)"/>
      <use xlink:href="#DejaVuSans-Bold-65" transform="translate(223.714844 0)"/>
      <use xlink:href="#DejaVuSans-Bold-20" transform="translate(291.537109 0)"/>
      <use xlink:href="#DejaVuSans-Bold-50" transform="translate(326.351562 0)"/>
      <use xlink:href="#DejaVuSans-Bold-6f" transform="translate(399.642578 0)"/>
      <use xlink:href="#DejaVuSans-Bold-73" transform="translate(468.34375 0)"/>
      <use xlink:href="#DejaVuSans-Bold-69" transform="translate(527.865234 0)"/>
      <use xlink:href="#DejaVuSans-Bold-74" transform="translate(562.142578 0)"/>
      <use xlink:href="#DejaVuSans-Bold-69" transform="translate(609.945312 0)"/>
      <use xlink:href="#DejaVuSans-Bold-76" transform="translate(644.222656 0)"/>
      <use xlink:href="#DejaVuSans-Bold-65" transform="translate(709.408203 0)"/>
      <use xlink:href="#DejaVuSans-Bold-20" transform="translate(777.230469 0)"/>
      <use xlink:href="#DejaVuSans-Bold-52" transform="translate(812.044922 0)"/>
      <use xlink:href="#DejaVuSans-Bold-61" transform="translate(889.046875 0)"/>
      <use xlink:href="#DejaVuSans-Bold-74" transform="translate(956.527344 0)"/>
      <use xlink:href="#DejaVuSans-Bold-65" transform="translate(1004.330078 0)"/>
     </g>
    </g>
   </g>
   <g id="matplotlib.axis_2">
    <g id="ytick_1">
     <g id="line2d_13">
      <path d="M 55.949375 439.876154 
L 630.967067 439.876154 
" clip-path="url(#p213e2a4f38)" style="fill: none; stroke-dasharray: 0.8,1.32; stroke-dashoffset: 0; stroke: #b0b0b0; stroke-opacity: 0.25; stroke-width: 0.8"/>
     </g>
     <g id="line2d_14">
      <defs>
       <path id="m28bca8077b" d="M 0 0 
L -3.5 0 
" style="stroke: #000000; stroke-width: 0.8"/>
      </defs>
      <g>
       <use xlink:href="#m28bca8077b" x="55.949375" y="439.876154" style="stroke: #000000; stroke-width: 0.8"/>
      </g>
     </g>
     <g id="text_8">
      <!-- 0.0 -->
      <g transform="translate(26.685 445.19506) scale(0.14 -0.14)">
       <use xlink:href="#DejaVuSans-30"/>
       <use xlink:href="#DejaVuSans-2e" transform="translate(63.623047 0)"/>
       <use xlink:href="#DejaVuSans-30" transform="translate(95.410156 0)"/>
      </g>
     </g>
    </g>
    <g id="ytick_2">
     <g id="line2d_15">
      <path d="M 55.949375 355.037692 
L 630.967067 355.037692 
" clip-path="url(#p213e2a4f38)" style="fill: none; stroke-dasharray: 0.8,1.32; stroke-dashoffset: 0; stroke: #b0b0b0; stroke-opacity: 0.25; stroke-width: 0.8"/>
     </g>
     <g id="line2d_16">
      <g>
       <use xlink:href="#m28bca8077b" x="55.949375" y="355.037692" style="stroke: #000000; stroke-width: 0.8"/>
      </g>
     </g>
     <g id="text_9">
      <!-- 0.2 -->
      <g transform="translate(26.685 360.356599) scale(0.14 -0.14)">
       <use xlink:href="#DejaVuSans-30"/>
       <use xlink:href="#DejaVuSans-2e" transform="translate(63.623047 0)"/>
       <use xlink:href="#DejaVuSans-32" transform="translate(95.410156 0)"/>
      </g>
     </g>
    </g>
    <g id="ytick_3">
     <g id="line2d_17">
      <path d="M 55.949375 270.199231 
L 630.967067 270.199231 
" clip-path="url(#p213e2a4f38)" style="fill: none; stroke-dasharray: 0.8,1.32; stroke-dashoffset: 0; stroke: #b0b0b0; stroke-opacity: 0.25; stroke-width: 0.8"/>
     </g>
     <g id="line2d_18">
      <g>
       <use xlink:href="#m28bca8077b" x="55.949375" y="270.199231" style="stroke: #000000; stroke-width: 0.8"/>
      </g>
     </g>
     <g id="text_10">
      <!-- 0.4 -->
      <g transform="translate(26.685 275.518137) scale(0.14 -0.14)">
       <use xlink:href="#DejaVuSans-30"/>
       <use xlink:href="#DejaVuSans-2e" transform="translate(63.623047 0)"/>
       <use xlink:href="#DejaVuSans-34" transform="translate(95.410156 0)"/>
      </g>
     </g>
    </g>
    <g id="ytick_4">
     <g id="line2d_19">
      <path d="M 55.949375 185.360769 
L 630.967067 185.360769 
" clip-path="url(#p213e2a4f38)" style="fill: none; stroke-dasharray: 0.8,1.32; stroke-dashoffset: 0; stroke: #b0b0b0; stroke-opacity: 0.25; stroke-width: 0.8"/>
     </g>
     <g id="line2d_20">
      <g>
       <use xlink:href="#m28bca8077b" x="55.949375" y="185.360769" style="stroke: #000000; stroke-width: 0.8"/>
      </g>
     </g>
     <g id="text_11">
      <!-- 0.6 -->
      <g transform="translate(26.685 190.679675) scale(0.14 -0.14)">
       <use xlink:href="#DejaVuSans-30"/>
       <use xlink:href="#DejaVuSans-2e" transform="translate(63.623047 0)"/>
       <use xlink:href="#DejaVuSans-36" transform="translate(95.410156 0)"/>
      </g>
     </g>
    </g>
    <g id="ytick_5">
     <g id="line2d_21">
      <path d="M 55.949375 100.522308 
L 630.967067 100.522308 
" clip-path="url(#p213e2a4f38)" style="fill: none; stroke-dasharray: 0.8,1.32; stroke-dashoffset: 0; stroke: #b0b0b0; stroke-opacity: 0.25; stroke-width: 0.8"/>
     </g>
     <g id="line2d_22">
      <g>
       <use xlink:href="#m28bca8077b" x="55.949375" y="100.522308" style="stroke: #000000; stroke-width: 0.8"/>
      </g>
     </g>
     <g id="text_12">
      <!-- 0.8 -->
      <g transform="translate(26.685 105.841214) scale(0.14 -0.14)">
       <use xlink:href="#DejaVuSans-30"/>
       <use xlink:href="#DejaVuSans-2e" transform="translate(63.623047 0)"/>
       <use xlink:href="#DejaVuSans-38" transform="translate(95.410156 0)"/>
      </g>
     </g>
    </g>
    <g id="ytick_6">
     <g id="line2d_23">
      <path d="M 55.949375 15.683846 
L 630.967067 15.683846 
" clip-path="url(#p213e2a4f38)" style="fill: none; stroke-dasharray: 0.8,1.32; stroke-dashoffset: 0; stroke: #b0b0b0; stroke-opacity: 0.25; stroke-width: 0.8"/>
     </g>
     <g id="line2d_24">
      <g>
       <use xlink:href="#m28bca8077b" x="55.949375" y="15.683846" style="stroke: #000000; stroke-width: 0.8"/>
      </g>
     </g>
     <g id="text_13">
      <!-- 1.0 -->
      <g transform="translate(26.685 21.002752) scale(0.14 -0.14)">
       <use xlink:href="#DejaVuSans-31"/>
       <use xlink:href="#DejaVuSans-2e" transform="translate(63.623047 0)"/>
       <use xlink:href="#DejaVuSans-30" transform="translate(95.410156 0)"/>
      </g>
     </g>
    </g>
    <g id="text_14">
     <!-- True Positive Rate -->
     <g transform="translate(19.3575 309.87375) rotate(-90) scale(0.16 -0.16)">
      <defs>
       <path id="DejaVuSans-Bold-54" d="M 31 4666 
L 4331 4666 
L 4331 3756 
L 2784 3756 
L 2784 0 
L 1581 0 
L 1581 3756 
L 31 3756 
L 31 4666 
z
" transform="scale(0.015625)"/>
       <path id="DejaVuSans-Bold-72" d="M 3138 2547 
Q 2991 2616 2845 2648 
Q 2700 2681 2553 2681 
Q 2122 2681 1889 2404 
Q 1656 2128 1656 1613 
L 1656 0 
L 538 0 
L 538 3500 
L 1656 3500 
L 1656 2925 
Q 1872 3269 2151 3426 
Q 2431 3584 2822 3584 
Q 2878 3584 2943 3579 
Q 3009 3575 3134 3559 
L 3138 2547 
z
" transform="scale(0.015625)"/>
       <path id="DejaVuSans-Bold-75" d="M 500 1363 
L 500 3500 
L 1625 3500 
L 1625 3150 
Q 1625 2866 1622 2436 
Q 1619 2006 1619 1863 
Q 1619 1441 1641 1255 
Q 1663 1069 1716 984 
Q 1784 875 1895 815 
Q 2006 756 2150 756 
Q 2500 756 2700 1025 
Q 2900 1294 2900 1772 
L 2900 3500 
L 4019 3500 
L 4019 0 
L 2900 0 
L 2900 506 
Q 2647 200 2364 54 
Q 2081 -91 1741 -91 
Q 1134 -91 817 281 
Q 500 653 500 1363 
z
" transform="scale(0.015625)"/>
      </defs>
      <use xlink:href="#DejaVuSans-Bold-54"/>
      <use xlink:href="#DejaVuSans-Bold-72" transform="translate(57.212891 0)"/>
      <use xlink:href="#DejaVuSans-Bold-75" transform="translate(106.529297 0)"/>
      <use xlink:href="#DejaVuSans-Bold-65" transform="translate(177.720703 0)"/>
      <use xlink:href="#DejaVuSans-Bold-20" transform="translate(245.542969 0)"/>
      <use xlink:href="#DejaVuSans-Bold-50" transform="translate(280.357422 0)"/>
      <use xlink:href="#DejaVuSans-Bold-6f" transform="translate(353.648438 0)"/>
      <use xlink:href="#DejaVuSans-Bold-73" transform="translate(422.349609 0)"/>
      <use xlink:href="#DejaVuSans-Bold-69" transform="translate(481.871094 0)"/>
      <use xlink:href="#DejaVuSans-Bold-74" transform="translate(516.148438 0)"/>
      <use xlink:href="#DejaVuSans-Bold-69" transform="translate(563.951172 0)"/>
      <use xlink:href="#DejaVuSans-Bold-76" transform="translate(598.228516 0)"/>
      <use xlink:href="#DejaVuSans-Bold-65" transform="translate(663.414062 0)"/>
      <use xlink:href="#DejaVuSans-Bold-20" transform="translate(731.236328 0)"/>
      <use xlink:href="#DejaVuSans-Bold-52" transform="translate(766.050781 0)"/>
      <use xlink:href="#DejaVuSans-Bold-61" transform="translate(843.052734 0)"/>
      <use xlink:href="#DejaVuSans-Bold-74" transform="translate(910.533203 0)"/>
      <use xlink:href="#DejaVuSans-Bold-65" transform="translate(958.335938 0)"/>
     </g>
    </g>
   </g>
   <g id="line2d_25">
    <path d="M 67.007408 439.876154 
L 619.909035 15.683846 
" clip-path="url(#p213e2a4f38)" style="fill: none; stroke-dasharray: 3.7,1.6; stroke-dashoffset: 0; stroke: #808080; stroke-opacity: 0.7"/>
   </g>
   <g id="line2d_26">
    <path d="M 67.007408 439.876154 
L 67.007408 433.728439 
L 80.829948 433.728439 
L 80.829948 359.955864 
L 94.652489 359.955864 
L 94.652489 310.774147 
L 108.47503 310.774147 
L 108.47503 255.444716 
L 122.29757 255.444716 
L 122.29757 249.297001 
L 136.120111 249.297001 
L 136.120111 243.149287 
L 149.942652 243.149287 
L 149.942652 200.115284 
L 177.587733 200.115284 
L 177.587733 144.785853 
L 191.410274 144.785853 
L 191.410274 107.899565 
L 232.877896 107.899565 
L 232.877896 83.308707 
L 274.345518 83.308707 
L 274.345518 64.865563 
L 315.81314 64.865563 
L 315.81314 58.717848 
L 343.458221 58.717848 
L 343.458221 52.570134 
L 371.103303 52.570134 
L 371.103303 46.422419 
L 398.748384 46.422419 
L 398.748384 27.979275 
L 412.570925 27.979275 
L 412.570925 21.831561 
L 426.393465 21.831561 
L 426.393465 15.683846 
L 619.909035 15.683846 
" clip-path="url(#p213e2a4f38)" style="fill: none; stroke: #76b689; stroke-width: 2; stroke-linecap: square"/>
   </g>
   <g id="line2d_27">
    <path d="M 67.007408 439.876154 
L 67.007408 433.728439 
L 67.007408 415.285295 
L 80.829948 409.137581 
L 80.829948 396.842152 
L 80.829948 384.546722 
L 80.829948 372.251293 
L 94.652489 372.251293 
L 94.652489 335.365006 
L 94.652489 323.069576 
L 94.652489 316.921862 
L 122.29757 316.921862 
L 122.29757 304.626433 
L 122.29757 292.331003 
L 122.29757 261.59243 
L 122.29757 249.297001 
L 136.120111 249.297001 
L 136.120111 237.001572 
L 149.942652 237.001572 
L 149.942652 163.228997 
L 163.765192 163.228997 
L 163.765192 144.785853 
L 177.587733 144.785853 
L 177.587733 120.194994 
L 205.232814 120.194994 
L 205.232814 101.751851 
L 219.055355 101.751851 
L 219.055355 95.604136 
L 288.168058 95.604136 
L 288.168058 89.456421 
L 301.990599 89.456421 
L 301.990599 83.308707 
L 315.81314 77.160992 
L 315.81314 71.013278 
L 329.63568 71.013278 
L 329.63568 58.717848 
L 329.63568 52.570134 
L 343.458221 52.570134 
L 343.458221 46.422419 
L 412.570925 46.422419 
L 412.570925 40.274705 
L 467.861087 40.274705 
L 467.861087 27.979275 
L 481.683628 27.979275 
L 481.683628 21.831561 
L 550.796331 21.831561 
L 550.796331 15.683846 
L 619.909035 15.683846 
" clip-path="url(#p213e2a4f38)" style="fill: none; stroke: #ffa500; stroke-width: 2; stroke-linecap: square"/>
   </g>
   <g id="line2d_28">
    <path d="M 67.007408 439.876154 
L 67.007408 433.728439 
L 67.007408 409.137581 
L 80.829948 409.137581 
L 80.829948 396.842152 
L 94.652489 396.842152 
L 94.652489 390.694437 
L 108.47503 390.694437 
L 108.47503 347.660435 
L 122.29757 347.660435 
L 122.29757 286.183289 
L 149.942652 286.183289 
L 149.942652 212.410713 
L 163.765192 212.410713 
L 163.765192 200.115284 
L 191.410274 200.115284 
L 191.410274 181.67214 
L 205.232814 181.67214 
L 205.232814 169.376711 
L 219.055355 169.376711 
L 219.055355 150.933567 
L 232.877896 150.933567 
L 232.877896 138.638138 
L 274.345518 138.638138 
L 274.345518 120.194994 
L 288.168058 120.194994 
L 288.168058 95.604136 
L 301.990599 95.604136 
L 301.990599 89.456421 
L 315.81314 89.456421 
L 315.81314 71.013278 
L 357.280762 71.013278 
L 357.280762 40.274705 
L 440.216006 40.274705 
L 440.216006 34.12699 
L 467.861087 34.12699 
L 467.861087 27.979275 
L 481.683628 27.979275 
L 481.683628 15.683846 
L 619.909035 15.683846 
" clip-path="url(#p213e2a4f38)" style="fill: none; stroke: #badac4; stroke-width: 2; stroke-linecap: square"/>
   </g>
   <g id="line2d_29">
    <path d="M 67.007408 439.876154 
L 80.829948 439.876154 
L 80.829948 378.399008 
L 80.829948 366.103579 
L 80.829948 341.51272 
L 94.652489 341.51272 
L 94.652489 335.365006 
L 122.29757 335.365006 
L 122.29757 316.921862 
L 136.120111 316.921862 
L 136.120111 310.774147 
L 136.120111 298.478718 
L 136.120111 286.183289 
L 149.942652 280.035574 
L 163.765192 280.035574 
L 163.765192 267.740145 
L 163.765192 255.444716 
L 163.765192 243.149287 
L 177.587733 243.149287 
L 177.587733 230.853857 
L 191.410274 224.706143 
L 191.410274 212.410713 
L 232.877896 212.410713 
L 232.877896 206.262999 
L 246.700436 193.96757 
L 260.522977 193.96757 
L 260.522977 187.819855 
L 260.522977 175.524426 
L 260.522977 163.228997 
L 260.522977 150.933567 
L 260.522977 132.490424 
L 274.345518 126.342709 
L 274.345518 107.899565 
L 288.168058 107.899565 
L 288.168058 101.751851 
L 301.990599 101.751851 
L 315.81314 95.604136 
L 315.81314 89.456421 
L 357.280762 89.456421 
L 357.280762 71.013278 
L 412.570925 71.013278 
L 426.393465 64.865563 
L 426.393465 52.570134 
L 426.393465 40.274705 
L 440.216006 40.274705 
L 440.216006 34.12699 
L 481.683628 34.12699 
L 481.683628 27.979275 
L 509.328709 27.979275 
L 509.328709 21.831561 
L 550.796331 21.831561 
L 550.796331 15.683846 
L 619.909035 15.683846 
" clip-path="url(#p213e2a4f38)" style="fill: none; stroke: #4a84c5; stroke-width: 2; stroke-linecap: square"/>
   </g>
   <g id="line2d_30">
    <path d="M 67.007408 439.876154 
L 67.007408 433.728439 
L 67.007408 409.137581 
L 108.47503 409.137581 
L 108.47503 384.546722 
L 122.29757 384.546722 
L 122.29757 378.399008 
L 136.120111 378.399008 
L 136.120111 372.251293 
L 149.942652 372.251293 
L 149.942652 353.808149 
L 163.765192 353.808149 
L 163.765192 280.035574 
L 177.587733 280.035574 
L 177.587733 255.444716 
L 191.410274 255.444716 
L 191.410274 224.706143 
L 205.232814 224.706143 
L 205.232814 193.96757 
L 219.055355 193.96757 
L 219.055355 163.228997 
L 246.700436 163.228997 
L 246.700436 157.081282 
L 260.522977 157.081282 
L 260.522977 132.490424 
L 274.345518 132.490424 
L 274.345518 126.342709 
L 288.168058 126.342709 
L 288.168058 89.456421 
L 329.63568 89.456421 
L 329.63568 71.013278 
L 343.458221 71.013278 
L 343.458221 64.865563 
L 357.280762 64.865563 
L 357.280762 34.12699 
L 398.748384 34.12699 
L 398.748384 27.979275 
L 412.570925 27.979275 
L 412.570925 21.831561 
L 550.796331 21.831561 
L 550.796331 15.683846 
L 619.909035 15.683846 
" clip-path="url(#p213e2a4f38)" style="fill: none; stroke: #49895c; stroke-width: 2; stroke-linecap: square"/>
   </g>
   <g id="line2d_31">
    <path d="M 67.007408 439.876154 
L 67.007408 433.728439 
L 67.007408 396.842152 
L 80.829948 396.842152 
L 80.829948 390.694437 
L 94.652489 378.399008 
L 108.47503 378.399008 
L 122.29757 366.103579 
L 136.120111 366.103579 
L 136.120111 359.955864 
L 136.120111 347.660435 
L 149.942652 347.660435 
L 149.942652 335.365006 
L 149.942652 329.217291 
L 149.942652 316.921862 
L 163.765192 316.921862 
L 177.587733 310.774147 
L 191.410274 310.774147 
L 191.410274 304.626433 
L 219.055355 292.331003 
L 232.877896 286.183289 
L 232.877896 273.88786 
L 232.877896 267.740145 
L 246.700436 267.740145 
L 246.700436 261.59243 
L 260.522977 249.297001 
L 260.522977 243.149287 
L 274.345518 237.001572 
L 288.168058 237.001572 
L 315.81314 237.001572 
L 315.81314 218.558428 
L 315.81314 200.115284 
L 329.63568 200.115284 
L 343.458221 193.96757 
L 343.458221 181.67214 
L 357.280762 175.524426 
L 371.103303 175.524426 
L 371.103303 169.376711 
L 371.103303 150.933567 
L 371.103303 138.638138 
L 398.748384 138.638138 
L 426.393465 132.490424 
L 426.393465 120.194994 
L 454.038547 120.194994 
L 454.038547 114.04728 
L 467.861087 114.04728 
L 467.861087 95.604136 
L 481.683628 89.456421 
L 481.683628 77.160992 
L 495.506169 71.013278 
L 509.328709 71.013278 
L 523.15125 64.865563 
L 550.796331 64.865563 
L 550.796331 58.717848 
L 550.796331 46.422419 
L 550.796331 40.274705 
L 564.618872 40.274705 
L 564.618872 34.12699 
L 578.441413 34.12699 
L 578.441413 15.683846 
L 619.909035 15.683846 
" clip-path="url(#p213e2a4f38)" style="fill: none; stroke: #8898a9; stroke-width: 2; stroke-linecap: square"/>
   </g>
   <g id="line2d_32">
    <path d="M 67.007408 439.876154 
L 67.007408 433.728439 
L 136.120111 433.728439 
L 136.120111 427.580725 
L 149.942652 427.580725 
L 149.942652 421.43301 
L 163.765192 421.43301 
L 163.765192 415.285295 
L 191.410274 415.285295 
L 191.410274 409.137581 
L 232.877896 409.137581 
L 232.877896 402.989866 
L 246.700436 402.989866 
L 246.700436 396.842152 
L 260.522977 396.842152 
L 260.522977 378.399008 
L 274.345518 378.399008 
L 274.345518 372.251293 
L 288.168058 372.251293 
L 288.168058 347.660435 
L 301.990599 347.660435 
L 301.990599 163.228997 
L 315.81314 163.228997 
L 315.81314 150.933567 
L 329.63568 150.933567 
L 329.63568 144.785853 
L 357.280762 144.785853 
L 357.280762 132.490424 
L 384.925843 132.490424 
L 384.925843 126.342709 
L 398.748384 126.342709 
L 398.748384 120.194994 
L 412.570925 120.194994 
L 412.570925 107.899565 
L 426.393465 107.899565 
L 426.393465 101.751851 
L 467.861087 101.751851 
L 467.861087 64.865563 
L 481.683628 64.865563 
L 481.683628 58.717848 
L 495.506169 58.717848 
L 495.506169 34.12699 
L 509.328709 34.12699 
L 509.328709 21.831561 
L 523.15125 21.831561 
L 523.15125 15.683846 
L 619.909035 15.683846 
" clip-path="url(#p213e2a4f38)" style="fill: none; stroke: #a382af; stroke-width: 2; stroke-linecap: square"/>
   </g>
   <g id="patch_3">
    <path d="M 55.949375 448.36 
L 55.949375 7.2 
" style="fill: none; stroke: #000000; stroke-width: 0.8; stroke-linejoin: miter; stroke-linecap: square"/>
   </g>
   <g id="patch_4">
    <path d="M 630.967067 448.36 
L 630.967067 7.2 
" style="fill: none; stroke: #000000; stroke-width: 0.8; stroke-linejoin: miter; stroke-linecap: square"/>
   </g>
   <g id="patch_5">
    <path d="M 55.949375 448.36 
L 630.967067 448.36 
" style="fill: none; stroke: #000000; stroke-width: 0.8; stroke-linejoin: miter; stroke-linecap: square"/>
   </g>
   <g id="patch_6">
    <path d="M 55.949375 7.2 
L 630.967067 7.2 
" style="fill: none; stroke: #000000; stroke-width: 0.8; stroke-linejoin: miter; stroke-linecap: square"/>
   </g>
   <g id="legend_1">
    <g id="patch_7">
     <path d="M 348.849567 441.36 
L 621.167067 441.36 
Q 623.967067 441.36 623.967067 438.56 
L 623.967067 275.565 
Q 623.967067 272.765 621.167067 272.765 
L 348.849567 272.765 
Q 346.049567 272.765 346.049567 275.565 
L 346.049567 438.56 
Q 346.049567 441.36 348.849567 441.36 
z
" style="fill: #ffffff; opacity: 0.95; stroke: #cccccc; stroke-linejoin: miter"/>
    </g>
    <g id="line2d_33">
     <path d="M 351.649567 284.102812 
L 365.649567 284.102812 
L 379.649567 284.102812 
" style="fill: none; stroke-dasharray: 3.7,1.6; stroke-dashoffset: 0; stroke: #808080; stroke-opacity: 0.7"/>
    </g>
    <g id="text_15">
     <!-- Random (AUC = 0.50) -->
     <g transform="translate(390.849567 289.002812) scale(0.14 -0.14)">
      <defs>
       <path id="DejaVuSans-52" d="M 2841 2188 
Q 3044 2119 3236 1894 
Q 3428 1669 3622 1275 
L 4263 0 
L 3584 0 
L 2988 1197 
Q 2756 1666 2539 1819 
Q 2322 1972 1947 1972 
L 1259 1972 
L 1259 0 
L 628 0 
L 628 4666 
L 2053 4666 
Q 2853 4666 3247 4331 
Q 3641 3997 3641 3322 
Q 3641 2881 3436 2590 
Q 3231 2300 2841 2188 
z
M 1259 4147 
L 1259 2491 
L 2053 2491 
Q 2509 2491 2742 2702 
Q 2975 2913 2975 3322 
Q 2975 3731 2742 3939 
Q 2509 4147 2053 4147 
L 1259 4147 
z
" transform="scale(0.015625)"/>
       <path id="DejaVuSans-61" d="M 2194 1759 
Q 1497 1759 1228 1600 
Q 959 1441 959 1056 
Q 959 750 1161 570 
Q 1363 391 1709 391 
Q 2188 391 2477 730 
Q 2766 1069 2766 1631 
L 2766 1759 
L 2194 1759 
z
M 3341 1997 
L 3341 0 
L 2766 0 
L 2766 531 
Q 2569 213 2275 61 
Q 1981 -91 1556 -91 
Q 1019 -91 701 211 
Q 384 513 384 1019 
Q 384 1609 779 1909 
Q 1175 2209 1959 2209 
L 2766 2209 
L 2766 2266 
Q 2766 2663 2505 2880 
Q 2244 3097 1772 3097 
Q 1472 3097 1187 3025 
Q 903 2953 641 2809 
L 641 3341 
Q 956 3463 1253 3523 
Q 1550 3584 1831 3584 
Q 2591 3584 2966 3190 
Q 3341 2797 3341 1997 
z
" transform="scale(0.015625)"/>
       <path id="DejaVuSans-6e" d="M 3513 2113 
L 3513 0 
L 2938 0 
L 2938 2094 
Q 2938 2591 2744 2837 
Q 2550 3084 2163 3084 
Q 1697 3084 1428 2787 
Q 1159 2491 1159 1978 
L 1159 0 
L 581 0 
L 581 3500 
L 1159 3500 
L 1159 2956 
Q 1366 3272 1645 3428 
Q 1925 3584 2291 3584 
Q 2894 3584 3203 3211 
Q 3513 2838 3513 2113 
z
" transform="scale(0.015625)"/>
       <path id="DejaVuSans-64" d="M 2906 2969 
L 2906 4863 
L 3481 4863 
L 3481 0 
L 2906 0 
L 2906 525 
Q 2725 213 2448 61 
Q 2172 -91 1784 -91 
Q 1150 -91 751 415 
Q 353 922 353 1747 
Q 353 2572 751 3078 
Q 1150 3584 1784 3584 
Q 2172 3584 2448 3432 
Q 2725 3281 2906 2969 
z
M 947 1747 
Q 947 1113 1208 752 
Q 1469 391 1925 391 
Q 2381 391 2643 752 
Q 2906 1113 2906 1747 
Q 2906 2381 2643 2742 
Q 2381 3103 1925 3103 
Q 1469 3103 1208 2742 
Q 947 2381 947 1747 
z
" transform="scale(0.015625)"/>
       <path id="DejaVuSans-6f" d="M 1959 3097 
Q 1497 3097 1228 2736 
Q 959 2375 959 1747 
Q 959 1119 1226 758 
Q 1494 397 1959 397 
Q 2419 397 2687 759 
Q 2956 1122 2956 1747 
Q 2956 2369 2687 2733 
Q 2419 3097 1959 3097 
z
M 1959 3584 
Q 2709 3584 3137 3096 
Q 3566 2609 3566 1747 
Q 3566 888 3137 398 
Q 2709 -91 1959 -91 
Q 1206 -91 779 398 
Q 353 888 353 1747 
Q 353 2609 779 3096 
Q 1206 3584 1959 3584 
z
" transform="scale(0.015625)"/>
       <path id="DejaVuSans-6d" d="M 3328 2828 
Q 3544 3216 3844 3400 
Q 4144 3584 4550 3584 
Q 5097 3584 5394 3201 
Q 5691 2819 5691 2113 
L 5691 0 
L 5113 0 
L 5113 2094 
Q 5113 2597 4934 2840 
Q 4756 3084 4391 3084 
Q 3944 3084 3684 2787 
Q 3425 2491 3425 1978 
L 3425 0 
L 2847 0 
L 2847 2094 
Q 2847 2600 2669 2842 
Q 2491 3084 2119 3084 
Q 1678 3084 1418 2786 
Q 1159 2488 1159 1978 
L 1159 0 
L 581 0 
L 581 3500 
L 1159 3500 
L 1159 2956 
Q 1356 3278 1631 3431 
Q 1906 3584 2284 3584 
Q 2666 3584 2933 3390 
Q 3200 3197 3328 2828 
z
" transform="scale(0.015625)"/>
       <path id="DejaVuSans-20" transform="scale(0.015625)"/>
       <path id="DejaVuSans-28" d="M 1984 4856 
Q 1566 4138 1362 3434 
Q 1159 2731 1159 2009 
Q 1159 1288 1364 580 
Q 1569 -128 1984 -844 
L 1484 -844 
Q 1016 -109 783 600 
Q 550 1309 550 2009 
Q 550 2706 781 3412 
Q 1013 4119 1484 4856 
L 1984 4856 
z
" transform="scale(0.015625)"/>
       <path id="DejaVuSans-41" d="M 2188 4044 
L 1331 1722 
L 3047 1722 
L 2188 4044 
z
M 1831 4666 
L 2547 4666 
L 4325 0 
L 3669 0 
L 3244 1197 
L 1141 1197 
L 716 0 
L 50 0 
L 1831 4666 
z
" transform="scale(0.015625)"/>
       <path id="DejaVuSans-55" d="M 556 4666 
L 1191 4666 
L 1191 1831 
Q 1191 1081 1462 751 
Q 1734 422 2344 422 
Q 2950 422 3222 751 
Q 3494 1081 3494 1831 
L 3494 4666 
L 4128 4666 
L 4128 1753 
Q 4128 841 3676 375 
Q 3225 -91 2344 -91 
Q 1459 -91 1007 375 
Q 556 841 556 1753 
L 556 4666 
z
" transform="scale(0.015625)"/>
       <path id="DejaVuSans-43" d="M 4122 4306 
L 4122 3641 
Q 3803 3938 3442 4084 
Q 3081 4231 2675 4231 
Q 1875 4231 1450 3742 
Q 1025 3253 1025 2328 
Q 1025 1406 1450 917 
Q 1875 428 2675 428 
Q 3081 428 3442 575 
Q 3803 722 4122 1019 
L 4122 359 
Q 3791 134 3420 21 
Q 3050 -91 2638 -91 
Q 1578 -91 968 557 
Q 359 1206 359 2328 
Q 359 3453 968 4101 
Q 1578 4750 2638 4750 
Q 3056 4750 3426 4639 
Q 3797 4528 4122 4306 
z
" transform="scale(0.015625)"/>
       <path id="DejaVuSans-3d" d="M 678 2906 
L 4684 2906 
L 4684 2381 
L 678 2381 
L 678 2906 
z
M 678 1631 
L 4684 1631 
L 4684 1100 
L 678 1100 
L 678 1631 
z
" transform="scale(0.015625)"/>
       <path id="DejaVuSans-35" d="M 691 4666 
L 3169 4666 
L 3169 4134 
L 1269 4134 
L 1269 2991 
Q 1406 3038 1543 3061 
Q 1681 3084 1819 3084 
Q 2600 3084 3056 2656 
Q 3513 2228 3513 1497 
Q 3513 744 3044 326 
Q 2575 -91 1722 -91 
Q 1428 -91 1123 -41 
Q 819 9 494 109 
L 494 744 
Q 775 591 1075 516 
Q 1375 441 1709 441 
Q 2250 441 2565 725 
Q 2881 1009 2881 1497 
Q 2881 1984 2565 2268 
Q 2250 2553 1709 2553 
Q 1456 2553 1204 2497 
Q 953 2441 691 2322 
L 691 4666 
z
" transform="scale(0.015625)"/>
       <path id="DejaVuSans-29" d="M 513 4856 
L 1013 4856 
Q 1481 4119 1714 3412 
Q 1947 2706 1947 2009 
Q 1947 1309 1714 600 
Q 1481 -109 1013 -844 
L 513 -844 
Q 928 -128 1133 580 
Q 1338 1288 1338 2009 
Q 1338 2731 1133 3434 
Q 928 4138 513 4856 
z
" transform="scale(0.015625)"/>
      </defs>
      <use xlink:href="#DejaVuSans-52"/>
      <use xlink:href="#DejaVuSans-61" transform="translate(67.232422 0)"/>
      <use xlink:href="#DejaVuSans-6e" transform="translate(128.511719 0)"/>
      <use xlink:href="#DejaVuSans-64" transform="translate(191.890625 0)"/>
      <use xlink:href="#DejaVuSans-6f" transform="translate(255.367188 0)"/>
      <use xlink:href="#DejaVuSans-6d" transform="translate(316.548828 0)"/>
      <use xlink:href="#DejaVuSans-20" transform="translate(413.960938 0)"/>
      <use xlink:href="#DejaVuSans-28" transform="translate(445.748047 0)"/>
      <use xlink:href="#DejaVuSans-41" transform="translate(484.761719 0)"/>
      <use xlink:href="#DejaVuSans-55" transform="translate(553.169922 0)"/>
      <use xlink:href="#DejaVuSans-43" transform="translate(626.363281 0)"/>
      <use xlink:href="#DejaVuSans-20" transform="translate(696.1875 0)"/>
      <use xlink:href="#DejaVuSans-3d" transform="translate(727.974609 0)"/>
      <use xlink:href="#DejaVuSans-20" transform="translate(811.763672 0)"/>
      <use xlink:href="#DejaVuSans-30" transform="translate(843.550781 0)"/>
      <use xlink:href="#DejaVuSans-2e" transform="translate(907.173828 0)"/>
      <use xlink:href="#DejaVuSans-35" transform="translate(938.960938 0)"/>
      <use xlink:href="#DejaVuSans-30" transform="translate(1002.583984 0)"/>
      <use xlink:href="#DejaVuSans-29" transform="translate(1066.207031 0)"/>
     </g>
    </g>
    <g id="line2d_34">
     <path d="M 351.649567 304.652187 
L 365.649567 304.652187 
L 379.649567 304.652187 
" style="fill: none; stroke: #76b689; stroke-width: 2; stroke-linecap: square"/>
    </g>
    <g id="text_16">
     <!-- NetSolP (ESM1b distilled)  (0.82) -->
     <g transform="translate(390.849567 309.552187) scale(0.14 -0.14)">
      <defs>
       <path id="DejaVuSans-4e" d="M 628 4666 
L 1478 4666 
L 3547 763 
L 3547 4666 
L 4159 4666 
L 4159 0 
L 3309 0 
L 1241 3903 
L 1241 0 
L 628 0 
L 628 4666 
z
" transform="scale(0.015625)"/>
       <path id="DejaVuSans-65" d="M 3597 1894 
L 3597 1613 
L 953 1613 
Q 991 1019 1311 708 
Q 1631 397 2203 397 
Q 2534 397 2845 478 
Q 3156 559 3463 722 
L 3463 178 
Q 3153 47 2828 -22 
Q 2503 -91 2169 -91 
Q 1331 -91 842 396 
Q 353 884 353 1716 
Q 353 2575 817 3079 
Q 1281 3584 2069 3584 
Q 2775 3584 3186 3129 
Q 3597 2675 3597 1894 
z
M 3022 2063 
Q 3016 2534 2758 2815 
Q 2500 3097 2075 3097 
Q 1594 3097 1305 2825 
Q 1016 2553 972 2059 
L 3022 2063 
z
" transform="scale(0.015625)"/>
       <path id="DejaVuSans-74" d="M 1172 4494 
L 1172 3500 
L 2356 3500 
L 2356 3053 
L 1172 3053 
L 1172 1153 
Q 1172 725 1289 603 
Q 1406 481 1766 481 
L 2356 481 
L 2356 0 
L 1766 0 
Q 1100 0 847 248 
Q 594 497 594 1153 
L 594 3053 
L 172 3053 
L 172 3500 
L 594 3500 
L 594 4494 
L 1172 4494 
z
" transform="scale(0.015625)"/>
       <path id="DejaVuSans-53" d="M 3425 4513 
L 3425 3897 
Q 3066 4069 2747 4153 
Q 2428 4238 2131 4238 
Q 1616 4238 1336 4038 
Q 1056 3838 1056 3469 
Q 1056 3159 1242 3001 
Q 1428 2844 1947 2747 
L 2328 2669 
Q 3034 2534 3370 2195 
Q 3706 1856 3706 1288 
Q 3706 609 3251 259 
Q 2797 -91 1919 -91 
Q 1588 -91 1214 -16 
Q 841 59 441 206 
L 441 856 
Q 825 641 1194 531 
Q 1563 422 1919 422 
Q 2459 422 2753 634 
Q 3047 847 3047 1241 
Q 3047 1584 2836 1778 
Q 2625 1972 2144 2069 
L 1759 2144 
Q 1053 2284 737 2584 
Q 422 2884 422 3419 
Q 422 4038 858 4394 
Q 1294 4750 2059 4750 
Q 2388 4750 2728 4690 
Q 3069 4631 3425 4513 
z
" transform="scale(0.015625)"/>
       <path id="DejaVuSans-6c" d="M 603 4863 
L 1178 4863 
L 1178 0 
L 603 0 
L 603 4863 
z
" transform="scale(0.015625)"/>
       <path id="DejaVuSans-50" d="M 1259 4147 
L 1259 2394 
L 2053 2394 
Q 2494 2394 2734 2622 
Q 2975 2850 2975 3272 
Q 2975 3691 2734 3919 
Q 2494 4147 2053 4147 
L 1259 4147 
z
M 628 4666 
L 2053 4666 
Q 2838 4666 3239 4311 
Q 3641 3956 3641 3272 
Q 3641 2581 3239 2228 
Q 2838 1875 2053 1875 
L 1259 1875 
L 1259 0 
L 628 0 
L 628 4666 
z
" transform="scale(0.015625)"/>
       <path id="DejaVuSans-45" d="M 628 4666 
L 3578 4666 
L 3578 4134 
L 1259 4134 
L 1259 2753 
L 3481 2753 
L 3481 2222 
L 1259 2222 
L 1259 531 
L 3634 531 
L 3634 0 
L 628 0 
L 628 4666 
z
" transform="scale(0.015625)"/>
       <path id="DejaVuSans-4d" d="M 628 4666 
L 1569 4666 
L 2759 1491 
L 3956 4666 
L 4897 4666 
L 4897 0 
L 4281 0 
L 4281 4097 
L 3078 897 
L 2444 897 
L 1241 4097 
L 1241 0 
L 628 0 
L 628 4666 
z
" transform="scale(0.015625)"/>
       <path id="DejaVuSans-62" d="M 3116 1747 
Q 3116 2381 2855 2742 
Q 2594 3103 2138 3103 
Q 1681 3103 1420 2742 
Q 1159 2381 1159 1747 
Q 1159 1113 1420 752 
Q 1681 391 2138 391 
Q 2594 391 2855 752 
Q 3116 1113 3116 1747 
z
M 1159 2969 
Q 1341 3281 1617 3432 
Q 1894 3584 2278 3584 
Q 2916 3584 3314 3078 
Q 3713 2572 3713 1747 
Q 3713 922 3314 415 
Q 2916 -91 2278 -91 
Q 1894 -91 1617 61 
Q 1341 213 1159 525 
L 1159 0 
L 581 0 
L 581 4863 
L 1159 4863 
L 1159 2969 
z
" transform="scale(0.015625)"/>
       <path id="DejaVuSans-69" d="M 603 3500 
L 1178 3500 
L 1178 0 
L 603 0 
L 603 3500 
z
M 603 4863 
L 1178 4863 
L 1178 4134 
L 603 4134 
L 603 4863 
z
" transform="scale(0.015625)"/>
       <path id="DejaVuSans-73" d="M 2834 3397 
L 2834 2853 
Q 2591 2978 2328 3040 
Q 2066 3103 1784 3103 
Q 1356 3103 1142 2972 
Q 928 2841 928 2578 
Q 928 2378 1081 2264 
Q 1234 2150 1697 2047 
L 1894 2003 
Q 2506 1872 2764 1633 
Q 3022 1394 3022 966 
Q 3022 478 2636 193 
Q 2250 -91 1575 -91 
Q 1294 -91 989 -36 
Q 684 19 347 128 
L 347 722 
Q 666 556 975 473 
Q 1284 391 1588 391 
Q 1994 391 2212 530 
Q 2431 669 2431 922 
Q 2431 1156 2273 1281 
Q 2116 1406 1581 1522 
L 1381 1569 
Q 847 1681 609 1914 
Q 372 2147 372 2553 
Q 372 3047 722 3315 
Q 1072 3584 1716 3584 
Q 2034 3584 2315 3537 
Q 2597 3491 2834 3397 
z
" transform="scale(0.015625)"/>
      </defs>
      <use xlink:href="#DejaVuSans-4e"/>
      <use xlink:href="#DejaVuSans-65" transform="translate(74.804688 0)"/>
      <use xlink:href="#DejaVuSans-74" transform="translate(136.328125 0)"/>
      <use xlink:href="#DejaVuSans-53" transform="translate(175.537109 0)"/>
      <use xlink:href="#DejaVuSans-6f" transform="translate(239.013672 0)"/>
      <use xlink:href="#DejaVuSans-6c" transform="translate(300.195312 0)"/>
      <use xlink:href="#DejaVuSans-50" transform="translate(327.978516 0)"/>
      <use xlink:href="#DejaVuSans-20" transform="translate(388.28125 0)"/>
      <use xlink:href="#DejaVuSans-28" transform="translate(420.068359 0)"/>
      <use xlink:href="#DejaVuSans-45" transform="translate(459.082031 0)"/>
      <use xlink:href="#DejaVuSans-53" transform="translate(522.265625 0)"/>
      <use xlink:href="#DejaVuSans-4d" transform="translate(585.742188 0)"/>
      <use xlink:href="#DejaVuSans-31" transform="translate(672.021484 0)"/>
      <use xlink:href="#DejaVuSans-62" transform="translate(735.644531 0)"/>
      <use xlink:href="#DejaVuSans-20" transform="translate(799.121094 0)"/>
      <use xlink:href="#DejaVuSans-64" transform="translate(830.908203 0)"/>
      <use xlink:href="#DejaVuSans-69" transform="translate(894.384766 0)"/>
      <use xlink:href="#DejaVuSans-73" transform="translate(922.167969 0)"/>
      <use xlink:href="#DejaVuSans-74" transform="translate(974.267578 0)"/>
      <use xlink:href="#DejaVuSans-69" transform="translate(1013.476562 0)"/>
      <use xlink:href="#DejaVuSans-6c" transform="translate(1041.259766 0)"/>
      <use xlink:href="#DejaVuSans-6c" transform="translate(1069.042969 0)"/>
      <use xlink:href="#DejaVuSans-65" transform="translate(1096.826172 0)"/>
      <use xlink:href="#DejaVuSans-64" transform="translate(1158.349609 0)"/>
      <use xlink:href="#DejaVuSans-29" transform="translate(1221.826172 0)"/>
      <use xlink:href="#DejaVuSans-20" transform="translate(1260.839844 0)"/>
      <use xlink:href="#DejaVuSans-20" transform="translate(1292.626953 0)"/>
      <use xlink:href="#DejaVuSans-28" transform="translate(1324.414062 0)"/>
      <use xlink:href="#DejaVuSans-30" transform="translate(1363.427734 0)"/>
      <use xlink:href="#DejaVuSans-2e" transform="translate(1427.050781 0)"/>
      <use xlink:href="#DejaVuSans-38" transform="translate(1458.837891 0)"/>
      <use xlink:href="#DejaVuSans-32" transform="translate(1522.460938 0)"/>
      <use xlink:href="#DejaVuSans-29" transform="translate(1586.083984 0)"/>
     </g>
    </g>
    <g id="line2d_35">
     <path d="M 351.649567 325.201562 
L 365.649567 325.201562 
L 379.649567 325.201562 
" style="fill: none; stroke: #ffa500; stroke-width: 2; stroke-linecap: square"/>
    </g>
    <g id="text_17">
     <!-- SoluProt  (0.81) -->
     <g transform="translate(390.849567 330.101562) scale(0.14 -0.14)">
      <defs>
       <path id="DejaVuSans-75" d="M 544 1381 
L 544 3500 
L 1119 3500 
L 1119 1403 
Q 1119 906 1312 657 
Q 1506 409 1894 409 
Q 2359 409 2629 706 
Q 2900 1003 2900 1516 
L 2900 3500 
L 3475 3500 
L 3475 0 
L 2900 0 
L 2900 538 
Q 2691 219 2414 64 
Q 2138 -91 1772 -91 
Q 1169 -91 856 284 
Q 544 659 544 1381 
z
M 1991 3584 
L 1991 3584 
z
" transform="scale(0.015625)"/>
       <path id="DejaVuSans-72" d="M 2631 2963 
Q 2534 3019 2420 3045 
Q 2306 3072 2169 3072 
Q 1681 3072 1420 2755 
Q 1159 2438 1159 1844 
L 1159 0 
L 581 0 
L 581 3500 
L 1159 3500 
L 1159 2956 
Q 1341 3275 1631 3429 
Q 1922 3584 2338 3584 
Q 2397 3584 2469 3576 
Q 2541 3569 2628 3553 
L 2631 2963 
z
" transform="scale(0.015625)"/>
      </defs>
      <use xlink:href="#DejaVuSans-53"/>
      <use xlink:href="#DejaVuSans-6f" transform="translate(63.476562 0)"/>
      <use xlink:href="#DejaVuSans-6c" transform="translate(124.658203 0)"/>
      <use xlink:href="#DejaVuSans-75" transform="translate(152.441406 0)"/>
      <use xlink:href="#DejaVuSans-50" transform="translate(215.820312 0)"/>
      <use xlink:href="#DejaVuSans-72" transform="translate(274.373047 0)"/>
      <use xlink:href="#DejaVuSans-6f" transform="translate(313.236328 0)"/>
      <use xlink:href="#DejaVuSans-74" transform="translate(374.417969 0)"/>
      <use xlink:href="#DejaVuSans-20" transform="translate(413.626953 0)"/>
      <use xlink:href="#DejaVuSans-20" transform="translate(445.414062 0)"/>
      <use xlink:href="#DejaVuSans-28" transform="translate(477.201172 0)"/>
      <use xlink:href="#DejaVuSans-30" transform="translate(516.214844 0)"/>
      <use xlink:href="#DejaVuSans-2e" transform="translate(579.837891 0)"/>
      <use xlink:href="#DejaVuSans-38" transform="translate(611.625 0)"/>
      <use xlink:href="#DejaVuSans-31" transform="translate(675.248047 0)"/>
      <use xlink:href="#DejaVuSans-29" transform="translate(738.871094 0)"/>
     </g>
    </g>
    <g id="line2d_36">
     <path d="M 351.649567 345.750937 
L 365.649567 345.750937 
L 379.649567 345.750937 
" style="fill: none; stroke: #badac4; stroke-width: 2; stroke-linecap: square"/>
    </g>
    <g id="text_18">
     <!-- NetSolP (ESM1b)  (0.76) -->
     <g transform="translate(390.849567 350.650937) scale(0.14 -0.14)">
      <defs>
       <path id="DejaVuSans-37" d="M 525 4666 
L 3525 4666 
L 3525 4397 
L 1831 0 
L 1172 0 
L 2766 4134 
L 525 4134 
L 525 4666 
z
" transform="scale(0.015625)"/>
      </defs>
      <use xlink:href="#DejaVuSans-4e"/>
      <use xlink:href="#DejaVuSans-65" transform="translate(74.804688 0)"/>
      <use xlink:href="#DejaVuSans-74" transform="translate(136.328125 0)"/>
      <use xlink:href="#DejaVuSans-53" transform="translate(175.537109 0)"/>
      <use xlink:href="#DejaVuSans-6f" transform="translate(239.013672 0)"/>
      <use xlink:href="#DejaVuSans-6c" transform="translate(300.195312 0)"/>
      <use xlink:href="#DejaVuSans-50" transform="translate(327.978516 0)"/>
      <use xlink:href="#DejaVuSans-20" transform="translate(388.28125 0)"/>
      <use xlink:href="#DejaVuSans-28" transform="translate(420.068359 0)"/>
      <use xlink:href="#DejaVuSans-45" transform="translate(459.082031 0)"/>
      <use xlink:href="#DejaVuSans-53" transform="translate(522.265625 0)"/>
      <use xlink:href="#DejaVuSans-4d" transform="translate(585.742188 0)"/>
      <use xlink:href="#DejaVuSans-31" transform="translate(672.021484 0)"/>
      <use xlink:href="#DejaVuSans-62" transform="translate(735.644531 0)"/>
      <use xlink:href="#DejaVuSans-29" transform="translate(799.121094 0)"/>
      <use xlink:href="#DejaVuSans-20" transform="translate(838.134766 0)"/>
      <use xlink:href="#DejaVuSans-20" transform="translate(869.921875 0)"/>
      <use xlink:href="#DejaVuSans-28" transform="translate(901.708984 0)"/>
      <use xlink:href="#DejaVuSans-30" transform="translate(940.722656 0)"/>
      <use xlink:href="#DejaVuSans-2e" transform="translate(1004.345703 0)"/>
      <use xlink:href="#DejaVuSans-37" transform="translate(1036.132812 0)"/>
      <use xlink:href="#DejaVuSans-36" transform="translate(1099.755859 0)"/>
      <use xlink:href="#DejaVuSans-29" transform="translate(1163.378906 0)"/>
     </g>
    </g>
    <g id="line2d_37">
     <path d="M 351.649567 366.300312 
L 365.649567 366.300312 
L 379.649567 366.300312 
" style="fill: none; stroke: #4a84c5; stroke-width: 2; stroke-linecap: square"/>
    </g>
    <g id="text_19">
     <!-- Protein-sol  (0.73) -->
     <g transform="translate(390.849567 371.200312) scale(0.14 -0.14)">
      <defs>
       <path id="DejaVuSans-2d" d="M 313 2009 
L 1997 2009 
L 1997 1497 
L 313 1497 
L 313 2009 
z
" transform="scale(0.015625)"/>
       <path id="DejaVuSans-33" d="M 2597 2516 
Q 3050 2419 3304 2112 
Q 3559 1806 3559 1356 
Q 3559 666 3084 287 
Q 2609 -91 1734 -91 
Q 1441 -91 1130 -33 
Q 819 25 488 141 
L 488 750 
Q 750 597 1062 519 
Q 1375 441 1716 441 
Q 2309 441 2620 675 
Q 2931 909 2931 1356 
Q 2931 1769 2642 2001 
Q 2353 2234 1838 2234 
L 1294 2234 
L 1294 2753 
L 1863 2753 
Q 2328 2753 2575 2939 
Q 2822 3125 2822 3475 
Q 2822 3834 2567 4026 
Q 2313 4219 1838 4219 
Q 1578 4219 1281 4162 
Q 984 4106 628 3988 
L 628 4550 
Q 988 4650 1302 4700 
Q 1616 4750 1894 4750 
Q 2613 4750 3031 4423 
Q 3450 4097 3450 3541 
Q 3450 3153 3228 2886 
Q 3006 2619 2597 2516 
z
" transform="scale(0.015625)"/>
      </defs>
      <use xlink:href="#DejaVuSans-50"/>
      <use xlink:href="#DejaVuSans-72" transform="translate(58.552734 0)"/>
      <use xlink:href="#DejaVuSans-6f" transform="translate(97.416016 0)"/>
      <use xlink:href="#DejaVuSans-74" transform="translate(158.597656 0)"/>
      <use xlink:href="#DejaVuSans-65" transform="translate(197.806641 0)"/>
      <use xlink:href="#DejaVuSans-69" transform="translate(259.330078 0)"/>
      <use xlink:href="#DejaVuSans-6e" transform="translate(287.113281 0)"/>
      <use xlink:href="#DejaVuSans-2d" transform="translate(350.492188 0)"/>
      <use xlink:href="#DejaVuSans-73" transform="translate(386.576172 0)"/>
      <use xlink:href="#DejaVuSans-6f" transform="translate(438.675781 0)"/>
      <use xlink:href="#DejaVuSans-6c" transform="translate(499.857422 0)"/>
      <use xlink:href="#DejaVuSans-20" transform="translate(527.640625 0)"/>
      <use xlink:href="#DejaVuSans-20" transform="translate(559.427734 0)"/>
      <use xlink:href="#DejaVuSans-28" transform="translate(591.214844 0)"/>
      <use xlink:href="#DejaVuSans-30" transform="translate(630.228516 0)"/>
      <use xlink:href="#DejaVuSans-2e" transform="translate(693.851562 0)"/>
      <use xlink:href="#DejaVuSans-37" transform="translate(725.638672 0)"/>
      <use xlink:href="#DejaVuSans-33" transform="translate(789.261719 0)"/>
      <use xlink:href="#DejaVuSans-29" transform="translate(852.884766 0)"/>
     </g>
    </g>
    <g id="line2d_38">
     <path d="M 351.649567 386.849687 
L 365.649567 386.849687 
L 379.649567 386.849687 
" style="fill: none; stroke: #49895c; stroke-width: 2; stroke-linecap: square"/>
    </g>
    <g id="text_20">
     <!-- NetSolP (ESM12)  (0.73) -->
     <g transform="translate(390.849567 391.749687) scale(0.14 -0.14)">
      <use xlink:href="#DejaVuSans-4e"/>
      <use xlink:href="#DejaVuSans-65" transform="translate(74.804688 0)"/>
      <use xlink:href="#DejaVuSans-74" transform="translate(136.328125 0)"/>
      <use xlink:href="#DejaVuSans-53" transform="translate(175.537109 0)"/>
      <use xlink:href="#DejaVuSans-6f" transform="translate(239.013672 0)"/>
      <use xlink:href="#DejaVuSans-6c" transform="translate(300.195312 0)"/>
      <use xlink:href="#DejaVuSans-50" transform="translate(327.978516 0)"/>
      <use xlink:href="#DejaVuSans-20" transform="translate(388.28125 0)"/>
      <use xlink:href="#DejaVuSans-28" transform="translate(420.068359 0)"/>
      <use xlink:href="#DejaVuSans-45" transform="translate(459.082031 0)"/>
      <use xlink:href="#DejaVuSans-53" transform="translate(522.265625 0)"/>
      <use xlink:href="#DejaVuSans-4d" transform="translate(585.742188 0)"/>
      <use xlink:href="#DejaVuSans-31" transform="translate(672.021484 0)"/>
      <use xlink:href="#DejaVuSans-32" transform="translate(735.644531 0)"/>
      <use xlink:href="#DejaVuSans-29" transform="translate(799.267578 0)"/>
      <use xlink:href="#DejaVuSans-20" transform="translate(838.28125 0)"/>
      <use xlink:href="#DejaVuSans-20" transform="translate(870.068359 0)"/>
      <use xlink:href="#DejaVuSans-28" transform="translate(901.855469 0)"/>
      <use xlink:href="#DejaVuSans-30" transform="translate(940.869141 0)"/>
      <use xlink:href="#DejaVuSans-2e" transform="translate(1004.492188 0)"/>
      <use xlink:href="#DejaVuSans-37" transform="translate(1036.279297 0)"/>
      <use xlink:href="#DejaVuSans-33" transform="translate(1099.902344 0)"/>
      <use xlink:href="#DejaVuSans-29" transform="translate(1163.525391 0)"/>
     </g>
    </g>
    <g id="line2d_39">
     <path d="M 351.649567 407.399063 
L 365.649567 407.399063 
L 379.649567 407.399063 
" style="fill: none; stroke: #8898a9; stroke-width: 2; stroke-linecap: square"/>
    </g>
    <g id="text_21">
     <!-- pI  (0.58) -->
     <g transform="translate(390.849567 412.299062) scale(0.14 -0.14)">
      <defs>
       <path id="DejaVuSans-70" d="M 1159 525 
L 1159 -1331 
L 581 -1331 
L 581 3500 
L 1159 3500 
L 1159 2969 
Q 1341 3281 1617 3432 
Q 1894 3584 2278 3584 
Q 2916 3584 3314 3078 
Q 3713 2572 3713 1747 
Q 3713 922 3314 415 
Q 2916 -91 2278 -91 
Q 1894 -91 1617 61 
Q 1341 213 1159 525 
z
M 3116 1747 
Q 3116 2381 2855 2742 
Q 2594 3103 2138 3103 
Q 1681 3103 1420 2742 
Q 1159 2381 1159 1747 
Q 1159 1113 1420 752 
Q 1681 391 2138 391 
Q 2594 391 2855 752 
Q 3116 1113 3116 1747 
z
" transform="scale(0.015625)"/>
       <path id="DejaVuSans-49" d="M 628 4666 
L 1259 4666 
L 1259 0 
L 628 0 
L 628 4666 
z
" transform="scale(0.015625)"/>
      </defs>
      <use xlink:href="#DejaVuSans-70"/>
      <use xlink:href="#DejaVuSans-49" transform="translate(63.476562 0)"/>
      <use xlink:href="#DejaVuSans-20" transform="translate(92.96875 0)"/>
      <use xlink:href="#DejaVuSans-20" transform="translate(124.755859 0)"/>
      <use xlink:href="#DejaVuSans-28" transform="translate(156.542969 0)"/>
      <use xlink:href="#DejaVuSans-30" transform="translate(195.556641 0)"/>
      <use xlink:href="#DejaVuSans-2e" transform="translate(259.179688 0)"/>
      <use xlink:href="#DejaVuSans-35" transform="translate(290.966797 0)"/>
      <use xlink:href="#DejaVuSans-38" transform="translate(354.589844 0)"/>
      <use xlink:href="#DejaVuSans-29" transform="translate(418.212891 0)"/>
     </g>
    </g>
    <g id="line2d_40">
     <path d="M 351.649567 427.948437 
L 365.649567 427.948437 
L 379.649567 427.948437 
" style="fill: none; stroke: #a382af; stroke-width: 2; stroke-linecap: square"/>
    </g>
    <g id="text_22">
     <!-- TM-score  (0.52) -->
     <g transform="translate(390.849567 432.848437) scale(0.14 -0.14)">
      <defs>
       <path id="DejaVuSans-54" d="M -19 4666 
L 3928 4666 
L 3928 4134 
L 2272 4134 
L 2272 0 
L 1638 0 
L 1638 4134 
L -19 4134 
L -19 4666 
z
" transform="scale(0.015625)"/>
       <path id="DejaVuSans-63" d="M 3122 3366 
L 3122 2828 
Q 2878 2963 2633 3030 
Q 2388 3097 2138 3097 
Q 1578 3097 1268 2742 
Q 959 2388 959 1747 
Q 959 1106 1268 751 
Q 1578 397 2138 397 
Q 2388 397 2633 464 
Q 2878 531 3122 666 
L 3122 134 
Q 2881 22 2623 -34 
Q 2366 -91 2075 -91 
Q 1284 -91 818 406 
Q 353 903 353 1747 
Q 353 2603 823 3093 
Q 1294 3584 2113 3584 
Q 2378 3584 2631 3529 
Q 2884 3475 3122 3366 
z
" transform="scale(0.015625)"/>
      </defs>
      <use xlink:href="#DejaVuSans-54"/>
      <use xlink:href="#DejaVuSans-4d" transform="translate(61.083984 0)"/>
      <use xlink:href="#DejaVuSans-2d" transform="translate(147.363281 0)"/>
      <use xlink:href="#DejaVuSans-73" transform="translate(183.447266 0)"/>
      <use xlink:href="#DejaVuSans-63" transform="translate(235.546875 0)"/>
      <use xlink:href="#DejaVuSans-6f" transform="translate(290.527344 0)"/>
      <use xlink:href="#DejaVuSans-72" transform="translate(351.708984 0)"/>
      <use xlink:href="#DejaVuSans-65" transform="translate(390.572266 0)"/>
      <use xlink:href="#DejaVuSans-20" transform="translate(452.095703 0)"/>
      <use xlink:href="#DejaVuSans-20" transform="translate(483.882812 0)"/>
      <use xlink:href="#DejaVuSans-28" transform="translate(515.669922 0)"/>
      <use xlink:href="#DejaVuSans-30" transform="translate(554.683594 0)"/>
      <use xlink:href="#DejaVuSans-2e" transform="translate(618.306641 0)"/>
      <use xlink:href="#DejaVuSans-35" transform="translate(650.09375 0)"/>
      <use xlink:href="#DejaVuSans-32" transform="translate(713.716797 0)"/>
      <use xlink:href="#DejaVuSans-29" transform="translate(777.339844 0)"/>
     </g>
    </g>
   </g>
  </g>
 </g>
 <defs>
  <clipPath id="p213e2a4f38">
   <rect x="55.949375" y="7.2" width="575.017692" height="441.16"/>
  </clipPath>
 </defs>
</svg>
